<svg xmlns="http://www.w3.org/2000/svg" width="30.119" height="30.118" viewBox="0 0 30.119 30.118">
  <g id="Icon_-_Phonepe" data-name="Icon - Phonepe" transform="translate(0.5 0.5)">
    <g id="Group_97" data-name="Group 97" transform="translate(0 0)">
      <path id="Path_933" data-name="Path 933" d="M14.561,3.441A15.059,15.059,0,0,1,25.209,29.148a15.059,15.059,0,1,1-21.3-21.3A14.961,14.961,0,0,1,14.561,3.441Zm0,29.118A14.059,14.059,0,1,0,.5,18.5,14.075,14.075,0,0,0,14.56,32.559Z" transform="translate(-0.001 -3.941)" fill="#434a5a"/>
    </g>
    <g id="Group_98" data-name="Group 98" transform="translate(8.491 3.641)">
      <path id="Path_934" data-name="Path 934" d="M24.426,15.931v.5a.39.39,0,0,1-.44.44H22.459a.246.246,0,0,0-.191.069.3.3,0,0,0-.063.208V28.991a.389.389,0,0,1-.44.44H20.539a.389.389,0,0,1-.44-.44v-4.28h-.091a1.744,1.744,0,0,1-.811.729,3.169,3.169,0,0,1-1.319.242h-.671a4.156,4.156,0,0,1-1.437-.234,3.1,3.1,0,0,1-1.12-.7,3,3,0,0,1-.72-1.107,4.114,4.114,0,0,1-.24-1.449V17.146a.323.323,0,0,0-.052-.2.21.21,0,0,0-.156-.081H12.14a.435.435,0,0,1-.33-.116.484.484,0,0,1-.11-.347v-.972a.407.407,0,0,1,.11-.311.462.462,0,0,1,.33-.1h6.815q-.739-.77-1.432-1.63t-1.335-1.817l-.648-.961-.647-.96a.724.724,0,0,1-.069-.167A.7.7,0,0,1,14.8,9.3a.307.307,0,0,1,.347-.347h1.411a.715.715,0,0,1,.359.086.642.642,0,0,1,.243.261l1.654,2.661,1.654,2.66a.969.969,0,0,0,.279.295.582.582,0,0,0,.324.1h2.915a.458.458,0,0,1,.33.1.408.408,0,0,1,.11.311v.5Z" transform="translate(-11.7 -8.957)" fill="#434a5a"/>
    </g>
    <g id="Group_99" data-name="Group 99" transform="translate(12.587 11.551)">
      <path id="Path_935" data-name="Path 935" d="M21.392,19.856H17.6a.246.246,0,0,0-.192.069.3.3,0,0,0-.063.208v4.835a1.865,1.865,0,0,0,.44,1.353,1.762,1.762,0,0,0,1.319.451h.624a2.6,2.6,0,0,0,.847-.124,1.468,1.468,0,0,0,.6-.373,1.618,1.618,0,0,0,.356-.586,2.312,2.312,0,0,0,.119-.766V20.134a.3.3,0,0,0-.064-.208A.241.241,0,0,0,21.392,19.856Z" transform="translate(-17.343 -19.856)" fill="#fefefe"/>
    </g>
  </g>
</svg>
